<svg width="30" height="27" viewBox="0 0 30 27" fill="none" xmlns="http://www.w3.org/2000/svg">
<g clip-path="url(#clip0_1_4)">
<path d="M2.34055 0.35476L15.0001 11.7487L27.6597 0.35476C28.1513 -0.0876519 28.9248 -0.121682 29.4597 0.252667L29.606 0.370762C30.1385 0.850042 30.1385 1.62711 29.606 2.10639L16.946 13.5L29.606 24.8936C30.0975 25.336 30.1353 26.0321 29.7194 26.5136L29.5881 26.6452C29.0556 27.1245 28.1922 27.1245 27.6597 26.6452L15.0001 15.2513L2.34055 26.6452C1.84898 27.0876 1.07548 27.1217 0.54054 26.7473L0.394305 26.6292C-0.138229 26.1499 -0.138229 25.3729 0.394305 24.8936L13.0542 13.5L0.394305 2.10639C-0.0972638 1.66398 -0.13508 0.967829 0.280863 0.486381L0.412116 0.35476C0.944651 -0.12452 1.80802 -0.12452 2.34055 0.35476ZM1.35852 1.23858L14.9827 13.5L1.35852 25.7614L1.37633 25.7774L15.0001 13.5157L28.6239 25.7774L28.6417 25.7614L15.0175 13.5L28.6417 1.23858L28.6239 1.22257L15.0001 13.4843L1.37633 1.22257L1.35852 1.23858Z" fill="#252528"/>
</g>
<defs>
<clipPath id="clip0_1_4">
<rect width="30" height="27" fill="white"/>
</clipPath>
</defs>
</svg>
